<mxfile host="app.diagrams.net" modified="2023-04-07T14:06:07.927Z" agent="Mozilla/5.0 (Windows NT 10.0; Win64; x64; rv:109.0) Gecko/20100101 Firefox/111.0" etag="8ICQpME1K6YFrRN-4keW" version="21.1.4" type="device">
  <diagram name="Page-1" id="aCD568rc1Aqn9_4GeF09">
    <mxGraphModel dx="520" dy="529" grid="1" gridSize="10" guides="1" tooltips="1" connect="1" arrows="1" fold="1" page="1" pageScale="1" pageWidth="850" pageHeight="1100" math="0" shadow="0">
      <root>
        <mxCell id="0" />
        <mxCell id="1" parent="0" />
        <mxCell id="9OrLca2oqMwukrl_Accx-6" style="edgeStyle=orthogonalEdgeStyle;rounded=0;orthogonalLoop=1;jettySize=auto;html=1;exitX=1;exitY=0.5;exitDx=0;exitDy=0;entryX=0;entryY=0.5;entryDx=0;entryDy=0;" edge="1" parent="1" source="9OrLca2oqMwukrl_Accx-1" target="9OrLca2oqMwukrl_Accx-2">
          <mxGeometry relative="1" as="geometry" />
        </mxCell>
        <mxCell id="9OrLca2oqMwukrl_Accx-1" value="LSM303DLHC e-compass modulis" style="rounded=0;whiteSpace=wrap;html=1;" vertex="1" parent="1">
          <mxGeometry x="160" y="160" width="120" height="60" as="geometry" />
        </mxCell>
        <mxCell id="9OrLca2oqMwukrl_Accx-4" style="edgeStyle=orthogonalEdgeStyle;rounded=0;orthogonalLoop=1;jettySize=auto;html=1;exitX=0.5;exitY=1;exitDx=0;exitDy=0;entryX=0.5;entryY=0;entryDx=0;entryDy=0;" edge="1" parent="1" source="9OrLca2oqMwukrl_Accx-2" target="9OrLca2oqMwukrl_Accx-3">
          <mxGeometry relative="1" as="geometry" />
        </mxCell>
        <mxCell id="9OrLca2oqMwukrl_Accx-9" style="edgeStyle=orthogonalEdgeStyle;rounded=0;orthogonalLoop=1;jettySize=auto;html=1;exitX=1;exitY=0.5;exitDx=0;exitDy=0;entryX=0;entryY=0.5;entryDx=0;entryDy=0;" edge="1" parent="1" source="9OrLca2oqMwukrl_Accx-2" target="9OrLca2oqMwukrl_Accx-8">
          <mxGeometry relative="1" as="geometry" />
        </mxCell>
        <mxCell id="9OrLca2oqMwukrl_Accx-2" value="STM32F303VC MCU" style="rounded=0;whiteSpace=wrap;html=1;" vertex="1" parent="1">
          <mxGeometry x="360" y="160" width="120" height="60" as="geometry" />
        </mxCell>
        <mxCell id="9OrLca2oqMwukrl_Accx-3" value="Personalinis kompiuteris" style="rounded=0;whiteSpace=wrap;html=1;" vertex="1" parent="1">
          <mxGeometry x="360" y="280" width="120" height="60" as="geometry" />
        </mxCell>
        <mxCell id="9OrLca2oqMwukrl_Accx-5" value="UART kanalas 4" style="text;html=1;strokeColor=none;fillColor=none;align=center;verticalAlign=middle;whiteSpace=wrap;rounded=0;" vertex="1" parent="1">
          <mxGeometry x="420" y="240" width="60" height="30" as="geometry" />
        </mxCell>
        <mxCell id="9OrLca2oqMwukrl_Accx-7" value="I2C kanalas1" style="text;html=1;strokeColor=none;fillColor=none;align=center;verticalAlign=middle;whiteSpace=wrap;rounded=0;" vertex="1" parent="1">
          <mxGeometry x="290" y="150" width="60" height="30" as="geometry" />
        </mxCell>
        <mxCell id="9OrLca2oqMwukrl_Accx-8" value="SSD1306 OLED ekranas" style="rounded=0;whiteSpace=wrap;html=1;" vertex="1" parent="1">
          <mxGeometry x="560" y="160" width="120" height="60" as="geometry" />
        </mxCell>
        <mxCell id="9OrLca2oqMwukrl_Accx-10" value="I2C kanalas2" style="text;html=1;strokeColor=none;fillColor=none;align=center;verticalAlign=middle;whiteSpace=wrap;rounded=0;" vertex="1" parent="1">
          <mxGeometry x="490" y="150" width="60" height="30" as="geometry" />
        </mxCell>
      </root>
    </mxGraphModel>
  </diagram>
</mxfile>
